<?xml version="1.0" encoding="utf-8"?>
<!-- Generator: Adobe Illustrator 16.0.0, SVG Export Plug-In . SVG Version: 6.00 Build 0)  -->
<!DOCTYPE svg PUBLIC "-//W3C//DTD SVG 1.1//EN" "http://www.w3.org/Graphics/SVG/1.1/DTD/svg11.dtd">
<svg version="1.1" id="Layer_1" xmlns="http://www.w3.org/2000/svg" xmlns:xlink="http://www.w3.org/1999/xlink" x="0px" y="0px"
	 width="32px" height="32px" viewBox="0 0 32 32" enable-background="new 0 0 32 32" xml:space="preserve">
<g>
	<circle cx="16.257" cy="3.26" r="3.247"/>
	<path d="M17.814,6.862l-0.768,0.321c-0.159-0.271-0.449-0.456-0.785-0.456c-0.337,0-0.625,0.185-0.783,0.45l-0.774-0.329
		c-0.109-0.048-0.249-0.036-0.35,0.029c-0.104,0.069-0.174,0.184-0.174,0.306v0.959c0,0.115,0.066,0.225,0.158,0.291
		c0.093,0.071,0.217,0.09,0.328,0.058c0.301-0.093,0.678-0.206,0.891-0.272c0.168,0.203,0.42,0.334,0.702,0.334
		c0.273,0,0.518-0.124,0.686-0.313c0.22,0.063,0.599,0.181,0.908,0.271c0.107,0.032,0.234,0.013,0.324-0.058
		c0.094-0.067,0.154-0.177,0.154-0.291V7.197c0-0.125-0.067-0.237-0.167-0.304C18.061,6.826,17.925,6.813,17.814,6.862z"/>
	<path d="M15.899,27.675h10.416V21.41h-2.729c0.001-0.038,0.002-0.071,0.002-0.104c0-0.91-0.484-1.717-1.211-2.158
		c0.127-0.201,0.202-0.443,0.203-0.7c0.021-6.746-2.169-9.153-3.689-10.198l-2.634,3.531L13.688,8.25
		c-1.522,1.045-3.751,3.701-3.73,10.45c0.002,0.727,0.589,1.339,1.318,1.339h0.001c0.727,0,1.332-0.62,1.33-1.346
		c-0.006-1.967,0.043-3.51,0.512-4.684v4.247c0,0.612,0.196,1.185,0.432,1.675V30.59c0,0.727,0.613,1.316,1.339,1.316
		c0.728,0,1.343-0.59,1.343-1.316l0.111-0.01c0,0.729,0.604,1.326,1.33,1.326s1.359-0.608,1.359-1.336v-1.877h-4.189v-8.342h3.151
		c0.238-0.766,0.765-1.402,1.441-1.808c0.037-0.17,0.006-4.563,0.006-4.563c0.373,0.968,0.537,2.488,0.529,4.455
		c0,0.193,0.037,0.375,0.109,0.541c-0.9,0.385-1.534,1.287-1.534,2.328c0,0.03,0.001,0.064,0.002,0.104H15.9L15.899,27.675
		L15.899,27.675z M19.59,21.309c0-0.813,0.663-1.479,1.477-1.479c0.814,0,1.478,0.669,1.478,1.481c0,0.031-0.002,0.063-0.003,0.103
		h-2.947C19.591,21.372,19.59,21.34,19.59,21.309z"/>
</g>
</svg>
