<?xml version="1.0" encoding="UTF-8"?>
<!-- Generator: Adobe Illustrator 16.0.4, SVG Export Plug-In . SVG Version: 6.00 Build 0)  -->
<!DOCTYPE svg PUBLIC "-//W3C//DTD SVG 1.1//EN" "http://www.w3.org/Graphics/SVG/1.1/DTD/svg11.dtd">
<svg version="1.1" id="Layer_1" xmlns="http://www.w3.org/2000/svg" xmlns:xlink="http://www.w3.org/1999/xlink" x="0px" y="0px" width="32px" height="32px" viewBox="0 0 32 32" enable-background="new 0 0 32 32" xml:space="preserve">
<g>
	<circle fill="#282828" cx="6.313" cy="3.021" r="2.984"/>
	<path fill="#282828" d="M14.46,12.439c-0.301-0.839-1.225-1.276-2.064-0.975c-1.349,0.484-3.19,0.896-4.318,0.123   c-0.511-0.351-0.828-0.922-1.02-1.472c0.35-1.239-0.231-2.586-1.433-3.158C4.283,6.318,2.678,6.887,2.04,8.229   c-0.158,0.331-1.542,3.418-1.542,9.632c0,0.736,0.297,1.404,0.779,1.892l0.439,10.659c0.036,0.814,0.682,1.496,1.514,1.548   c0.891,0.056,1.658-0.621,1.714-1.513L5.66,18.924c0.141-0.324,0.219-0.686,0.219-1.062c0-1.467,0.089-2.707,0.216-3.727   c0.041,0.03,0.083,0.061,0.125,0.091c0.977,0.681,2.139,1.022,3.474,1.022c1.139,0,2.406-0.249,3.792-0.746   C14.325,14.202,14.761,13.278,14.46,12.439z"/>
	<circle fill="#282828" cx="25.688" cy="3.021" r="2.984"/>
	<path fill="#282828" d="M29.959,8.229c-0.639-1.342-2.243-1.912-3.585-1.272c-1.202,0.572-1.783,1.919-1.433,3.158   c-0.191,0.55-0.508,1.121-1.021,1.472c-1.127,0.774-2.969,0.361-4.317-0.123c-0.84-0.301-1.764,0.136-2.064,0.975   s0.136,1.763,0.975,2.064c1.387,0.497,2.652,0.746,3.793,0.746c1.334,0,2.496-0.341,3.475-1.022   c0.042-0.03,0.084-0.061,0.125-0.091c0.126,1.021,0.216,2.258,0.216,3.726c0,0.378,0.078,0.738,0.219,1.063l0.716,11.523   c0.055,0.892,0.822,1.567,1.713,1.513c0.832-0.052,1.479-0.732,1.515-1.548l0.438-10.659c0.481-0.486,0.779-1.154,0.779-1.893   C31.501,11.647,30.117,8.56,29.959,8.229z"/>
	<path fill="#282828" d="M16.52,19.49c-0.099-0.104-0.25-0.137-0.382-0.08c-0.131,0.055-0.216,0.184-0.214,0.328l0.023,1.127   c0,0-1.697,0.738-2.735-0.502c-0.263-0.314-0.466-0.646-0.621-0.961c-0.111-0.228-0.355-0.354-0.603-0.314s-0.44,0.236-0.475,0.486   c-0.132,0.945-0.079,2.104,0.569,3.15c1.412,2.276,3.957,2.68,3.957,2.68l0.02,0.973c0.003,0.137,0.085,0.259,0.21,0.312   c0.125,0.055,0.271,0.031,0.371-0.063l2.801-2.571c0.203-0.188,0.322-0.447,0.332-0.724c0.008-0.274-0.095-0.545-0.285-0.743   L16.52,19.49z"/>
	<path fill="#282828" d="M14.705,8.497c0.099,0.104,0.251,0.135,0.383,0.08c0.132-0.054,0.217-0.184,0.214-0.327l-0.023-1.127   c0,0,1.698-0.74,2.737,0.501c0.262,0.314,0.465,0.645,0.621,0.962c0.109,0.225,0.354,0.352,0.602,0.313   c0.248-0.04,0.441-0.237,0.475-0.485c0.133-0.946,0.079-2.104-0.568-3.15c-1.412-2.278-3.958-2.682-3.958-2.682l-0.02-0.972   c-0.002-0.137-0.085-0.259-0.21-0.312c-0.125-0.053-0.271-0.029-0.371,0.063l-2.799,2.572c-0.203,0.187-0.323,0.448-0.332,0.725   c-0.009,0.276,0.094,0.544,0.285,0.744L14.705,8.497z"/>
</g>
</svg>