<?xml version="1.0" encoding="UTF-8" standalone="no"?>
<!-- Generator: Adobe Illustrator 16.0.4, SVG Export Plug-In . SVG Version: 6.00 Build 0)  -->

<svg
   xmlns:dc="http://purl.org/dc/elements/1.1/"
   xmlns:cc="http://creativecommons.org/ns#"
   xmlns:rdf="http://www.w3.org/1999/02/22-rdf-syntax-ns#"
   xmlns:svg="http://www.w3.org/2000/svg"
   xmlns="http://www.w3.org/2000/svg"
   xmlns:sodipodi="http://sodipodi.sourceforge.net/DTD/sodipodi-0.dtd"
   xmlns:inkscape="http://www.inkscape.org/namespaces/inkscape"
   version="1.1"
   id="Layer_1"
   x="0px"
   y="0px"
   width="300"
   height="300"
   viewBox="0 0 300 300"
   enable-background="new 0 0 32 32"
   xml:space="preserve"
   inkscape:version="0.48.4 r9939"
   sodipodi:docname="image.svg"><metadata
     id="metadata3080"><rdf:RDF><cc:Work
         rdf:about=""><dc:format>image/svg+xml</dc:format><dc:type
           rdf:resource="http://purl.org/dc/dcmitype/StillImage" /></cc:Work></rdf:RDF></metadata><defs
     id="defs3078" /><sodipodi:namedview
     pagecolor="#ffffff"
     bordercolor="#666666"
     borderopacity="1"
     objecttolerance="10"
     gridtolerance="10"
     guidetolerance="10"
     inkscape:pageopacity="0"
     inkscape:pageshadow="2"
     inkscape:window-width="1562"
     inkscape:window-height="879"
     id="namedview3076"
     showgrid="false"
     inkscape:zoom="1.4375"
     inkscape:cx="-137.73349"
     inkscape:cy="54.583903"
     inkscape:window-x="38"
     inkscape:window-y="21"
     inkscape:window-maximized="1"
     inkscape:current-layer="Layer_1" /><g
     id="g3062"
     transform="matrix(9.3921741,0,0,9.3623418,-1.582452,1.3847801)"><circle
       cx="6.3130002"
       cy="3.0209999"
       r="2.984"
       id="circle3064"
       d="m 9.2970002,3.0209999 c 0,1.6480177 -1.3359823,2.984 -2.984,2.984 -1.6480177,0 -2.984,-1.3359823 -2.984,-2.984 0,-1.6480177 1.3359823,-2.98399996 2.984,-2.98399996 1.6480177,0 2.984,1.33598226 2.984,2.98399996 z"
       sodipodi:cx="6.3130002"
       sodipodi:cy="3.0209999"
       sodipodi:rx="2.984"
       sodipodi:ry="2.984"
       style="fill:#282828" /><path
       d="M 14.46,12.439 C 14.159,11.6 13.235,11.163 12.396,11.464 11.047,11.948 9.206,12.36 8.078,11.587 7.567,11.236 7.25,10.665 7.058,10.115 7.408,8.876 6.827,7.529 5.625,6.957 4.283,6.318 2.678,6.887 2.04,8.229 1.882,8.56 0.498,11.647 0.498,17.861 c 0,0.736 0.297,1.404 0.779,1.892 l 0.439,10.659 c 0.036,0.814 0.682,1.496 1.514,1.548 0.891,0.056 1.658,-0.621 1.714,-1.513 L 5.66,18.924 c 0.141,-0.324 0.219,-0.686 0.219,-1.062 0,-1.467 0.089,-2.707 0.216,-3.727 0.041,0.03 0.083,0.061 0.125,0.091 0.977,0.681 2.139,1.022 3.474,1.022 1.139,0 2.406,-0.249 3.792,-0.746 0.839,-0.3 1.275,-1.224 0.974,-2.063 z"
       id="path3066"
       inkscape:connector-curvature="0"
       style="fill:#282828" /><circle
       cx="25.688"
       cy="3.0209999"
       r="2.984"
       id="circle3068"
       d="m 28.672,3.0209999 c 0,1.6480177 -1.335983,2.984 -2.984,2.984 -1.648018,0 -2.984,-1.3359823 -2.984,-2.984 0,-1.6480177 1.335982,-2.98399996 2.984,-2.98399996 1.648017,0 2.984,1.33598226 2.984,2.98399996 z"
       sodipodi:cx="25.688"
       sodipodi:cy="3.0209999"
       sodipodi:rx="2.984"
       sodipodi:ry="2.984"
       style="fill:#282828" /><path
       d="M 29.959,8.229 C 29.32,6.887 27.716,6.317 26.374,6.957 c -1.202,0.572 -1.783,1.919 -1.433,3.158 -0.191,0.55 -0.508,1.121 -1.021,1.472 -1.127,0.774 -2.969,0.361 -4.317,-0.123 -0.84,-0.301 -1.764,0.136 -2.064,0.975 -0.3,0.839 0.136,1.763 0.975,2.064 1.387,0.497 2.652,0.746 3.793,0.746 1.334,0 2.496,-0.341 3.475,-1.022 0.042,-0.03 0.084,-0.061 0.125,-0.091 0.126,1.021 0.216,2.258 0.216,3.726 0,0.378 0.078,0.738 0.219,1.063 l 0.716,11.523 c 0.055,0.892 0.822,1.567 1.713,1.513 0.832,-0.052 1.479,-0.732 1.515,-1.548 L 30.724,19.754 C 31.205,19.268 31.503,18.6 31.503,17.861 31.501,11.647 30.117,8.56 29.959,8.229 z"
       id="path3070"
       inkscape:connector-curvature="0"
       style="fill:#282828" /><path
       d="m 16.52,19.49 c -0.099,-0.104 -0.25,-0.137 -0.382,-0.08 -0.131,0.055 -0.216,0.184 -0.214,0.328 l 0.023,1.127 c 0,0 -1.697,0.738 -2.735,-0.502 -0.263,-0.314 -0.466,-0.646 -0.621,-0.961 -0.111,-0.228 -0.355,-0.354 -0.603,-0.314 -0.248,0.04 -0.44,0.236 -0.475,0.486 -0.132,0.945 -0.079,2.104 0.569,3.15 1.412,2.276 3.957,2.68 3.957,2.68 l 0.02,0.973 c 0.003,0.137 0.085,0.259 0.21,0.312 0.125,0.055 0.271,0.031 0.371,-0.063 l 2.801,-2.571 c 0.203,-0.188 0.322,-0.447 0.332,-0.724 0.008,-0.274 -0.095,-0.545 -0.285,-0.743 L 16.52,19.49 z"
       id="path3072"
       inkscape:connector-curvature="0"
       style="fill:#282828" /><path
       d="m 14.705,8.497 c 0.099,0.104 0.251,0.135 0.383,0.08 C 15.22,8.523 15.305,8.393 15.302,8.25 L 15.279,7.123 c 0,0 1.698,-0.74 2.737,0.501 0.262,0.314 0.465,0.645 0.621,0.962 0.109,0.225 0.354,0.352 0.602,0.313 C 19.487,8.859 19.68,8.662 19.714,8.414 19.847,7.468 19.793,6.31 19.146,5.264 17.734,2.986 15.188,2.582 15.188,2.582 L 15.168,1.61 C 15.166,1.473 15.083,1.351 14.958,1.298 14.833,1.245 14.687,1.269 14.587,1.361 l -2.799,2.572 c -0.203,0.187 -0.323,0.448 -0.332,0.725 -0.009,0.276 0.094,0.544 0.285,0.744 l 2.964,3.095 z"
       id="path3074"
       inkscape:connector-curvature="0"
       style="fill:#282828" /></g></svg>